{"title":"Missiles From Hell aka Battle of the V-1 (1958)","uid":8123575,"size":1006770915,"categoryP":"video","categoryS":"movies","magnet":"?xt=urn:btih:604d093a16e6676a018f70a6448f8ec6ff0f6b6f&amp;dn=Missiles+From+Hell+aka+Battle+of+the+V-1+%281958%29&amp;tr=udp%3A%2F%2Ftracker.openbittorrent.com%3A80&amp;tr=udp%3A%2F%2Fopen.demonii.com%3A1337&amp;tr=udp%3A%2F%2Ftracker.coppersurfer.tk%3A6969&amp;tr=udp%3A%2F%2Fexodus.desync.com%3A6969","seeders":0,"leechers":2,"uploader":"RadioResearch","files":3,"time":1360442357,"description":"SEEDBOX SUPPORTED, AS ALWAYS!\n\n*******************************************************************************\n              Missiles From Hell aka The Battle of the V-1 (1958)\n*******************************************************************************\n\n-------------------------------------------------------------------------------\n                              General Information\n-------------------------------------------------------------------------------\nType.................: Movie\n\n\n\nVideo Format.........: AVI\nVideo Bitrate........: 1679\nResolution...........: 352 x 264\nColor................: 8 bit\nFPS..................: 29.97\nSource...............: DVD 4x3\nOriginal Format......: NTSC\nGenre................: War\nIMDb Rating..........: 5.5\nMovie Information....: http://www.imdb.com/title/tt0051402\n\n-------------------------------------------------------------------------------\n                                 Release Notes\n-------------------------------------------------------------------------------\nClassic war drama of the infamous V-1 rockets with Michael Rennie.  Watch for \nChristopher Lee as a German Officer (brief appearance).  Rumor has it that Rod \nSteiger has an unbilled brief appearance as a German in this film as well, but I \nam unable to find him.\n\nThis is a DVDRip which appears to have been made from an original print.\n\nGeneral\nComplete name                            : G:Missiles From Hell aka Battle of \nthe V-1 (1958)DVD_VIDEO_RECORDER_Title3.avi\nFormat                                   : AVI\nFormat/Info                              : Audio Video Interleave\nFile size                                : 960 MiB\nDuration                                 : 1h 19mn\nOverall bit rate                         : 1 679 Kbps\nMovie name                               : DVD_VIDEO_RECORDER\nWriting application                      : MEncoder 5.0\nWriting library                          : [= DigiArty videodll! =]\nVideo\nID                                       : 0\nFormat                                   : MPEG-4 Visual\nFormat profile                           : Simple@L1\nFormat settings, BVOP                    : No\nFormat settings, QPel                    : No\nFormat settings, GMC                     : No warppoints\nFormat settings, Matrix                  : Default (H.263)\nCodec ID                                 : DX50\nCodec ID/Hint                            : DivX 5\nDuration                                 : 1h 19mn\nBit rate                                 : 1 417 Kbps\nWidth                                    : 352 pixels\nHeight                                   : 264 pixels\nDisplay aspect ratio                     : 4:3\nFrame rate                               : 29.970 fps\nColor space                              : YUV\nChroma subsampling                       : 4:2:0\nBit depth                                : 8 bits\nScan type                                : Progressive\nCompression mode                         : Lossy\nBits/(Pixel*Frame)                       : 0.509\nStream size                              : 810 MiB (84%)\nWriting library                          : Lavc54.71.100\n\nAudio\nID                                       : 1\nFormat                                   : AC-3\nFormat/Info                              : Audio Coding 3\nMode extension                           : CM (complete main)\nFormat settings, Endianness              : Big\nCodec ID                                 : 2000\nDuration                                 : 1h 19mn\nBit rate mode                            : Constant\nBit rate                                 : 256 Kbps\nChannel(s)                               : 2 channels\nChannel positions                        : Front: L R\nSampling rate                            : 48.0 KHz\nBit depth                                : 16 bits\nCompression mode                         : Lossy\nStream size                              : 146 MiB (15%)\nAlignment                                : Split accross interleaves\nInterleave, duration                     : 500 ms (14.98 video frames)\nInterleave, preload duration             : 500 ms\n\nEnjoy!\n\nRadioResearch\n\n\n\n-------------------------------------------------------------------------------\nGenerated with Cool NFO Creator - http://fly.to/coolbeans\n-------------------------------------------------------------------------------\n","torrent":{"xt":"urn:btih:604d093a16e6676a018f70a6448f8ec6ff0f6b6f","amp;dn":"Missiles+From+Hell+aka+Battle+of+the+V-1+%281958%29","amp;tr":["udp%3A%2F%2Ftracker.openbittorrent.com%3A80","udp%3A%2F%2Fopen.demonii.com%3A1337","udp%3A%2F%2Ftracker.coppersurfer.tk%3A6969","udp%3A%2F%2Fexodus.desync.com%3A6969"],"infoHash":"604d093a16e6676a018f70a6448f8ec6ff0f6b6f","infoHashBuffer":{"type":"Buffer","data":[96,77,9,58,22,230,103,106,1,143,112,166,68,143,142,198,255,15,107,111]},"announce":[],"urlList":[]}}